<svg width="16" height="17" viewBox="0 0 16 17" fill="none" xmlns="http://www.w3.org/2000/svg">
<path d="M10.8682 8.03556C11.2588 8.42609 11.2588 9.05925 10.8682 9.44978L6.62559 13.6924C6.23507 14.0829 5.6019 14.0829 5.21138 13.6924C4.82086 13.3019 4.82086 12.6687 5.21138 12.2782L8.74691 8.74267L5.21135 5.20711C4.82083 4.81658 4.82083 4.18342 5.21135 3.79289C5.60187 3.40237 6.23504 3.40237 6.62556 3.79289L10.8682 8.03556C10.8682 8.03557 10.8682 8.03555 10.8682 8.03556Z" fill="#1E1E1E"/>
<path d="M10.8682 8.03556C11.2588 8.42609 11.2588 9.05925 10.8682 9.44978L6.62559 13.6924C6.23507 14.0829 5.6019 14.0829 5.21138 13.6924C4.82086 13.3019 4.82086 12.6687 5.21138 12.2782L8.74691 8.74267L5.21135 5.20711C4.82083 4.81658 4.82083 4.18342 5.21135 3.79289C5.60187 3.40237 6.23504 3.40237 6.62556 3.79289L10.8682 8.03556C10.8682 8.03557 10.8682 8.03555 10.8682 8.03556Z" fill="#1E1E1E"/>
</svg>
