<svg width="56" height="56" viewBox="0 0 56 56" fill="none" xmlns="http://www.w3.org/2000/svg">
<path fill-rule="evenodd" clip-rule="evenodd" d="M5.10425 7.24609H6.09825V48.5212L17.7542 28.0363C17.3687 27.6028 17.1337 27.0309 17.1337 26.4044C17.1337 25.0478 18.2335 23.9481 19.5901 23.9481C20.9467 23.9481 22.0464 25.0478 22.0464 26.4044C22.0464 26.4965 22.0413 26.5875 22.0314 26.6771L33.5129 30.9343C33.9269 30.1627 34.741 29.6376 35.6786 29.6376C36.0392 29.6376 36.3823 29.7156 36.6912 29.8556L48.8731 12.2805L44.1344 14.6833L43.6849 13.7967L50.898 10.1393V17.8971H49.904V12.538L37.4952 30.4406C37.8922 30.8767 38.1349 31.457 38.1349 32.094C38.1349 33.4506 37.0352 34.5503 35.6786 34.5503C34.322 34.5503 33.2223 33.4506 33.2223 32.094C33.2223 32.0253 33.2251 31.9571 33.2307 31.8897L21.7232 27.6229C21.3001 28.3622 20.5038 28.8608 19.5901 28.8608C19.2217 28.8608 18.8718 28.7794 18.5578 28.6339L6.45587 49.9026H51.4981V50.8966H5.10425V7.24609ZM19.5901 24.9421C18.7825 24.9421 18.1277 25.5968 18.1277 26.4044C18.1277 26.8704 18.3451 27.2853 18.686 27.5539C18.9349 27.75 19.2482 27.8668 19.5901 27.8668C20.2434 27.8668 20.7978 27.438 20.9849 26.8453C21.0287 26.7068 21.0524 26.5589 21.0524 26.4044C21.0524 25.5968 20.3977 24.9421 19.5901 24.9421ZM35.6786 30.6316C35.0078 30.6316 34.4414 31.0837 34.2696 31.7007C34.235 31.8252 34.2163 31.957 34.2163 32.094C34.2163 32.9016 34.871 33.5563 35.6786 33.5563C36.4862 33.5563 37.1409 32.9016 37.1409 32.094C37.1409 31.6108 36.9071 31.1823 36.5443 30.9152C36.3019 30.7369 36.0033 30.6316 35.6786 30.6316Z" fill="#F3652B"/>
</svg>
