<svg width="28" height="28" viewBox="0 0 28 28" fill="none" xmlns="http://www.w3.org/2000/svg">
<path fill-rule="evenodd" clip-rule="evenodd" d="M14 8.24846C10.8235 8.24846 8.2484 10.8235 8.2484 14.0001C8.2484 17.1766 10.8235 19.7517 14 19.7517C17.1765 19.7517 19.7516 17.1766 19.7516 14.0001C19.7516 10.8235 17.1765 8.24846 14 8.24846ZM14 17.7336C11.938 17.7336 10.2665 16.062 10.2665 14.0001C10.2665 11.9381 11.938 10.2666 14 10.2666C16.062 10.2666 17.7335 11.9381 17.7335 14.0001C17.7335 16.062 16.062 17.7336 14 17.7336Z" fill="white"/>
<path d="M19.9788 9.36526C20.7212 9.36526 21.3229 8.76353 21.3229 8.02122C21.3229 7.27891 20.7212 6.67714 19.9788 6.67714C19.2366 6.67714 18.6348 7.27891 18.6348 8.02122C18.6348 8.76353 19.2366 9.36526 19.9788 9.36526Z" fill="white"/>
<path fill-rule="evenodd" clip-rule="evenodd" d="M14 2.79956C10.9581 2.79956 10.5767 2.81245 9.38205 2.86696C8.18989 2.92134 7.37568 3.11069 6.66325 3.38759C5.92672 3.67379 5.30209 4.05677 4.67938 4.67944C4.05671 5.30215 3.67373 5.92678 3.38753 6.66331C3.11063 7.37574 2.92128 8.18995 2.8669 9.38211C2.81239 10.5768 2.7995 10.9582 2.7995 14.0001C2.7995 17.0419 2.81239 17.4234 2.8669 18.618C2.92128 19.8102 3.11063 20.6244 3.38753 21.3368C3.67373 22.0734 4.05671 22.698 4.67938 23.3207C5.30209 23.9434 5.92672 24.3263 6.66325 24.6126C7.37568 24.8894 8.18989 25.0788 9.38205 25.1332C10.5767 25.1877 10.9581 25.2006 14 25.2006C17.0419 25.2006 17.4233 25.1877 18.618 25.1332C19.8101 25.0788 20.6243 24.8894 21.3368 24.6126C22.0733 24.3263 22.6979 23.9434 23.3206 23.3207C23.9433 22.698 24.3263 22.0734 24.6125 21.3368C24.8894 20.6244 25.0787 19.8102 25.1331 18.618C25.1876 17.4234 25.2005 17.0419 25.2005 14.0001C25.2005 10.9582 25.1876 10.5768 25.1331 9.38211C25.0787 8.18995 24.8894 7.37574 24.6125 6.66331C24.3263 5.92678 23.9433 5.30215 23.3206 4.67944C22.6979 4.05677 22.0733 3.67379 21.3368 3.38759C20.6243 3.11069 19.8101 2.92134 18.618 2.86696C17.4233 2.81245 17.0419 2.79956 14 2.79956ZM14 4.81767C16.9907 4.81767 17.3449 4.82909 18.526 4.88298C19.618 4.93277 20.2111 5.11524 20.6057 5.26863C21.1285 5.47181 21.5017 5.71452 21.8936 6.10649C22.2855 6.4984 22.5283 6.87152 22.7314 7.39433C22.8848 7.789 23.0673 8.38206 23.1171 9.4741C23.171 10.6551 23.1824 11.0094 23.1824 14.0001C23.1824 16.9907 23.171 17.345 23.1171 18.526C23.0673 19.6181 22.8848 20.2111 22.7314 20.6058C22.5283 21.1286 22.2855 21.5017 21.8936 21.8936C21.5017 22.2856 21.1285 22.5283 20.6057 22.7315C20.2111 22.8849 19.618 23.0674 18.526 23.1171C17.3451 23.171 16.9909 23.1825 14 23.1825C11.0091 23.1825 10.655 23.171 9.47404 23.1171C8.382 23.0674 7.78894 22.8849 7.39427 22.7315C6.87146 22.5283 6.49834 22.2856 6.10642 21.8936C5.71451 21.5017 5.47175 21.1286 5.26857 20.6058C5.11518 20.2111 4.93271 19.6181 4.88292 18.526C4.82903 17.345 4.8176 16.9907 4.8176 14.0001C4.8176 11.0094 4.82903 10.6551 4.88292 9.4741C4.93271 8.38206 5.11518 7.789 5.26857 7.39433C5.47175 6.87152 5.71446 6.4984 6.10642 6.10649C6.49834 5.71452 6.87146 5.47181 7.39427 5.26863C7.78894 5.11524 8.382 4.93277 9.47404 4.88298C10.6551 4.82909 11.0093 4.81767 14 4.81767Z" fill="white"/>
</svg>
