<svg width="17" height="16" viewBox="0 0 17 16" fill="none" xmlns="http://www.w3.org/2000/svg">
<path d="M11.2015 7.53556C11.592 7.92609 11.592 8.55925 11.2015 8.94978L6.95885 13.1924C6.56832 13.5829 5.93516 13.5829 5.54463 13.1924C5.15411 12.8019 5.15411 12.1687 5.54463 11.7782L9.08017 8.24267L5.5446 4.70711C5.15408 4.31658 5.15408 3.68342 5.5446 3.29289C5.93513 2.90237 6.56829 2.90237 6.95882 3.29289L11.2015 7.53556C11.2015 7.53557 11.2015 7.53555 11.2015 7.53556Z" fill="white"/>
<path d="M11.2015 7.53556C11.592 7.92609 11.592 8.55925 11.2015 8.94978L6.95885 13.1924C6.56832 13.5829 5.93516 13.5829 5.54463 13.1924C5.15411 12.8019 5.15411 12.1687 5.54463 11.7782L9.08017 8.24267L5.5446 4.70711C5.15408 4.31658 5.15408 3.68342 5.5446 3.29289C5.93513 2.90237 6.56829 2.90237 6.95882 3.29289L11.2015 7.53556C11.2015 7.53557 11.2015 7.53555 11.2015 7.53556Z" fill="white"/>
</svg>
