<svg width="28" height="28" viewBox="0 0 28 28" fill="none" xmlns="http://www.w3.org/2000/svg">
<path fill-rule="evenodd" clip-rule="evenodd" d="M18.5667 21.8873H21.8883V16.0248C21.8883 13.1451 21.2673 10.9325 17.9022 10.9325C16.2855 10.9325 15.2028 11.8185 14.7585 12.6585H14.7125V11.1976H11.529V16.5997H9.44445V11.1976H6.11786V21.8873H9.44445V16.5997H11.529V21.8873H14.8481V16.5997C14.8481 15.2059 15.112 13.8545 16.8393 13.8545C18.5443 13.8545 18.5667 15.4486 18.5667 16.688V21.8873ZM5.85402 7.81018C5.85402 8.87418 6.71523 9.73783 7.78302 9.73783C8.84459 9.73783 9.70828 8.87418 9.70828 7.81018C9.70828 6.74743 8.84459 5.88378 7.78302 5.88378C6.71523 5.88378 5.85402 6.74743 5.85402 7.81018ZM4.45146 2.80005H23.5423C24.4558 2.80005 25.2 3.52307 25.2 4.41534V23.5835C25.2 24.4758 24.4558 25.2001 23.5423 25.2001H4.45146C3.54047 25.2001 2.79999 24.4758 2.79999 23.5835V4.41534C2.79999 3.52307 3.54047 2.80005 4.45146 2.80005Z" fill="white"/>
</svg>
