<svg width="28" height="28" viewBox="0 0 28 28" fill="none" xmlns="http://www.w3.org/2000/svg">
<path fill-rule="evenodd" clip-rule="evenodd" d="M18.9392 4.19995H16.3734C13.4976 4.19995 11.6374 6.0929 11.6374 9.02361V11.2477H9.06088C8.95209 11.2485 8.84812 11.2911 8.7719 11.366C8.69568 11.4409 8.65349 11.542 8.65462 11.6469V14.8696C8.65349 14.9745 8.69568 15.0756 8.7719 15.1505C8.84812 15.2254 8.95209 15.268 9.06088 15.2688H11.6374V23.3997C11.6362 23.5048 11.6784 23.606 11.7546 23.681C11.8308 23.7561 11.9347 23.7989 12.0436 23.8H15.4006C15.5094 23.7989 15.6134 23.7561 15.6896 23.681C15.7658 23.606 15.8079 23.5048 15.8068 23.3997V15.2688H18.8216C18.9304 15.268 19.0344 15.2254 19.1106 15.1505C19.1868 15.0756 19.229 14.9745 19.2279 14.8696V11.6469C19.2275 11.5417 19.1854 11.4406 19.1103 11.3643C19.034 11.2899 18.9301 11.2479 18.8216 11.2477H15.8068V9.35785C15.7055 8.97456 15.8207 8.5681 16.1101 8.28797C16.3996 8.00784 16.8205 7.89541 17.218 7.99204H18.9392C19.048 7.99122 19.152 7.94867 19.2282 7.87377C19.3044 7.79887 19.3466 7.69778 19.3455 7.59281V4.60124C19.3469 4.496 19.3049 4.39454 19.2286 4.31925C19.1524 4.24396 19.0483 4.20104 18.9392 4.19995Z" fill="white"/>
</svg>
