<svg width="56" height="56" viewBox="0 0 56 56" fill="none" xmlns="http://www.w3.org/2000/svg">
<path fill-rule="evenodd" clip-rule="evenodd" d="M21.2785 10.7103C25.7189 5.22402 33.7653 4.37698 39.2543 8.81771C44.7405 13.2582 45.5874 21.307 41.1469 26.7934C36.7064 32.2797 28.6576 33.1266 23.1711 28.686C17.6847 24.2454 16.8356 16.1966 21.2785 10.7103ZM39.9213 7.99322C33.9773 3.18439 25.2632 4.10133 20.4541 10.0431C16.0456 15.4871 16.4485 23.2605 21.1169 28.2235L8.74739 42.7694L8.73991 42.7786C7.93059 43.7747 8.08472 45.2488 9.08309 46.0573C10.082 46.8663 11.5552 46.709 12.3633 45.7144L23.9801 30.5552C29.8155 34.1404 37.547 32.9268 41.9712 27.4606C46.7802 21.519 45.863 12.8023 39.9213 7.99322ZM9.55961 43.4516L21.8587 28.9883L23.0844 29.9805L11.5357 45.0509C11.0944 45.5881 10.2915 45.6713 9.75052 45.2332C9.2087 44.7944 9.12431 43.992 9.55961 43.4516Z" fill="#F3652B"/>
<path fill-rule="evenodd" clip-rule="evenodd" d="M14.6465 47.059L21.1532 38.5687V51.0894H17.6965V50.0289H20.0927V41.696L15.7071 47.4187V50.0289H17.6965V51.0894H14.6465L14.6465 47.059Z" fill="#F3652B"/>
<path fill-rule="evenodd" clip-rule="evenodd" d="M24.4208 34.185L24.8669 34.3595C26.3559 34.9419 27.9262 35.2708 29.5417 35.3962L30.0309 35.4341V51.0894H26.2021V50.0289H28.9704V36.4095C27.5927 36.2681 26.2379 35.9808 24.93 35.515L24.5848 36.1873V50.0289H26.2021V51.0894H23.5243V35.9309L24.4208 34.185Z" fill="#F3652B"/>
<path fill-rule="evenodd" clip-rule="evenodd" d="M32.3997 35.404L32.8683 35.3491C34.7287 35.1312 36.5019 34.6024 38.1466 33.8132L38.9063 33.4486V51.0894H35.653V50.0289H37.8458V35.1126C36.4573 35.7021 34.9885 36.1203 33.4602 36.3412V50.0289H35.653V51.0894H32.3997V35.404Z" fill="#F3652B"/>
<path fill-rule="evenodd" clip-rule="evenodd" d="M41.2727 31.8738L41.4669 31.7147C42.3506 30.9905 43.1687 30.1795 43.9001 29.2744C45.1753 27.6982 46.1187 25.9372 46.7465 24.0685L47.7794 24.2374V51.0894H44.1767V50.0289H46.7189V26.868C46.1693 27.946 45.5058 28.9758 44.7248 29.9412C43.9991 30.8391 43.1954 31.6478 42.3333 32.3737V50.0289H44.1767V51.0894H41.2727V31.8738Z" fill="#F3652B"/>
</svg>
