<svg width="17" height="16" viewBox="0 0 17 16" fill="none" xmlns="http://www.w3.org/2000/svg">
<path d="M11.5349 7.53556C11.9254 7.92609 11.9254 8.55925 11.5349 8.94978L7.29222 13.1924C6.9017 13.5829 6.26853 13.5829 5.87801 13.1924C5.48748 12.8019 5.48748 12.1687 5.87801 11.7782L9.41354 8.24267L5.87798 4.70711C5.48745 4.31658 5.48745 3.68342 5.87798 3.29289C6.2685 2.90237 6.90167 2.90237 7.29219 3.29289L11.5349 7.53556C11.5349 7.53557 11.5349 7.53555 11.5349 7.53556Z" fill="white"/>
<path d="M11.5349 7.53556C11.9254 7.92609 11.9254 8.55925 11.5349 8.94978L7.29222 13.1924C6.9017 13.5829 6.26853 13.5829 5.87801 13.1924C5.48748 12.8019 5.48748 12.1687 5.87801 11.7782L9.41354 8.24267L5.87798 4.70711C5.48745 4.31658 5.48745 3.68342 5.87798 3.29289C6.2685 2.90237 6.90167 2.90237 7.29219 3.29289L11.5349 7.53556C11.5349 7.53557 11.5349 7.53555 11.5349 7.53556Z" fill="white"/>
</svg>
