<svg width="16" height="16" viewBox="0 0 16 16" fill="none" xmlns="http://www.w3.org/2000/svg">
<path d="M10.8795 7.54706C11.2587 7.93841 11.2549 8.56306 10.8682 8.94978L6.62556 13.1924C6.23504 13.5829 5.60187 13.5829 5.21135 13.1924C4.82082 12.8019 4.82082 12.1687 5.21135 11.7782L8.74688 8.24267L5.21132 4.70711C4.8208 4.31658 4.8208 3.68342 5.21132 3.29289C5.60184 2.90237 6.23501 2.90237 6.62553 3.29289L10.8682 7.53553" fill="#1E1E1E"/>
<path d="M10.8682 7.53556C11.2588 7.92609 11.2588 8.55925 10.8682 8.94978L6.62559 13.1924C6.23507 13.5829 5.6019 13.5829 5.21138 13.1924C4.82086 12.8019 4.82086 12.1687 5.21138 11.7782L8.74691 8.24267L5.21135 4.70711C4.82083 4.31658 4.82083 3.68342 5.21135 3.29289C5.60187 2.90237 6.23504 2.90237 6.62556 3.29289L10.8682 7.53556Z" fill="#1E1E1E"/>
</svg>
