<svg width="28" height="28" viewBox="0 0 28 28" fill="none" xmlns="http://www.w3.org/2000/svg">
<path fill-rule="evenodd" clip-rule="evenodd" d="M24.0791 5.77246C25.1634 6.05994 26.0172 6.907 26.307 7.98268C26.8337 9.93228 26.8337 14 26.8337 14C26.8337 14 26.8337 18.0677 26.307 20.0174C26.0172 21.093 25.1634 21.9401 24.0791 22.2277C22.114 22.75 14.2337 22.75 14.2337 22.75C14.2337 22.75 6.35341 22.75 4.38818 22.2277C3.30397 21.9401 2.45003 21.093 2.16025 20.0174C1.63367 18.0677 1.63367 14 1.63367 14C1.63367 14 1.63367 9.93228 2.16025 7.98268C2.45003 6.907 3.30397 6.05994 4.38818 5.77246C6.35341 5.25 14.2337 5.25 14.2337 5.25C14.2337 5.25 22.114 5.25 24.0791 5.77246ZM18.2428 14.0002L11.6564 17.6932V10.3068L18.2428 14.0002Z" fill="white"/>
</svg>
