<svg width="56" height="56" viewBox="0 0 56 56" fill="none" xmlns="http://www.w3.org/2000/svg">
<path fill-rule="evenodd" clip-rule="evenodd" d="M28.7001 4.48716C27.0415 4.48716 25.6971 5.83165 25.6971 7.49016C25.6971 9.14868 27.0415 10.4932 28.7001 10.4932C30.3586 10.4932 31.7031 9.14868 31.7031 7.49016C31.7031 5.83165 30.3586 4.48716 28.7001 4.48716ZM24.7031 7.49016C24.7031 5.28268 26.4926 3.49316 28.7001 3.49316C30.9075 3.49316 32.6971 5.28268 32.6971 7.49016C32.6971 9.52935 31.17 11.2119 29.1971 11.4566V17.2943L46.4031 34.5003V21.7002H47.397V36.1972H32.9001V35.2032H45.7002L29.1971 18.7V53.4003L38.1486 44.4487L38.8515 45.1516L28.7001 55.303L18.5486 45.1516L19.2515 44.4487L28.2031 53.4003V18.7L11.6999 35.2032H24.5001V36.1972H10.0031V21.7002H10.9971V34.5003L28.2031 17.2943V11.4566C26.2301 11.2119 24.7031 9.52935 24.7031 7.49016Z" fill="#F3652B"/>
</svg>
