<svg width="56" height="56" viewBox="0 0 56 56" fill="none" xmlns="http://www.w3.org/2000/svg">
<path d="M15.2207 6.75332C15.1161 7.23919 15.1165 7.23926 15.1165 7.23926L15.1126 7.23848L15.0909 7.23425C15.0705 7.2304 15.0385 7.22465 14.996 7.21787C14.911 7.2043 14.7843 7.18668 14.6245 7.1719C14.3042 7.14227 13.8558 7.12453 13.3467 7.17207C12.3239 7.26758 11.0992 7.62136 10.1509 8.62358C8.60189 10.2613 8.59221 12.4477 8.66272 14.2944C8.67924 14.7122 8.72046 15.2733 8.76903 15.9342L8.80583 16.4379C8.86902 17.3122 8.93587 18.3103 8.96989 19.3202C9.00387 20.3292 9.00542 21.3585 8.93634 22.2951C8.86782 23.2243 8.72764 24.0972 8.46058 24.7754C7.80018 26.4596 6.57385 27.3863 5.44525 27.8893C5.35677 27.9287 5.26878 27.9656 5.1816 28.0001C5.26878 28.0346 5.35677 28.0715 5.44525 28.111C6.5739 28.614 7.80029 29.5408 8.46067 31.2251C8.72767 31.9033 8.86782 32.776 8.93634 33.7051C9.00542 34.6418 9.00387 35.6711 8.96989 36.68C8.93587 37.69 8.86902 38.6881 8.80583 39.5624L8.76903 40.066C8.72049 40.7267 8.67928 41.2876 8.66274 41.7053C8.59223 43.552 8.60191 45.7391 10.1509 47.3767C11.0992 48.3789 12.3239 48.7327 13.3467 48.8282C13.8558 48.8757 14.3042 48.858 14.6245 48.8284C14.7843 48.8136 14.911 48.796 14.996 48.7824C15.0385 48.7756 15.0705 48.7699 15.0909 48.766L15.1126 48.7618L15.1165 48.761C15.1165 48.761 15.1161 48.7611 15.2207 49.247C15.3253 49.7328 15.3249 49.7329 15.3249 49.7329L15.3232 49.7333L15.3199 49.734L15.3096 49.7361L15.2751 49.7428C15.246 49.7483 15.2048 49.7557 15.1526 49.764C15.0483 49.7806 14.8999 49.8012 14.7161 49.8181C14.3495 49.8521 13.8378 49.8724 13.2542 49.8179C12.0918 49.7093 10.601 49.2987 9.42871 48.0597C7.56236 46.0865 7.60002 43.4861 7.66949 41.6666C7.68675 41.2303 7.72967 40.6463 7.77841 39.9835L7.81442 39.4908C7.87742 38.6191 7.94311 37.6366 7.97645 36.6466C8.00983 35.6555 8.01046 34.6654 7.94504 33.7782C7.87906 32.8836 7.74776 32.1276 7.53541 31.5883C6.99344 30.2056 5.9957 29.4446 5.04059 29.0189C4.10071 28.6 3.2181 28.5146 2.90741 28.4977C2.87906 28.4989 2.85585 28.4996 2.83817 28.5L2.81103 28.5005L2.80278 28.5006L2.80002 28.5006L2.79822 28.5006L2.7981 28.4937L2.79825 27.5066L2.79858 27.4997L2.80005 27.4997L2.80281 27.4997L2.81105 27.4998L2.83819 27.5002C2.85586 27.5006 2.87906 27.5013 2.90741 27.5026C3.21811 27.4856 4.10072 27.4003 5.04059 26.9814C5.9957 26.5557 6.99372 25.7939 7.5357 24.4112C7.74804 23.872 7.87906 23.1167 7.94504 22.222C8.01046 21.3349 8.00983 20.3448 7.97645 19.3537C7.94311 18.3636 7.87742 17.3812 7.81442 16.5095L7.77841 16.0169C7.72968 15.354 7.68672 14.7694 7.66947 14.333C7.6 12.5135 7.56242 9.91371 9.42877 7.94049C10.601 6.70152 12.0918 6.29093 13.2542 6.18238C13.8378 6.12789 14.3495 6.1482 14.7161 6.18212C14.8999 6.19912 15.0483 6.21965 15.1526 6.23629C15.2048 6.24462 15.246 6.25198 15.2751 6.25748L15.3096 6.2642L15.3199 6.2663L15.3232 6.267L15.3249 6.26736C15.3249 6.26736 15.3253 6.26745 15.2207 6.75332Z" fill="#F3652B"/>
<path d="M40.7795 6.75332C40.8841 7.23919 40.8837 7.23926 40.8837 7.23926L40.8875 7.23848L40.9093 7.23425C40.9297 7.2304 40.9617 7.22465 41.0042 7.21787C41.0892 7.2043 41.2159 7.18668 41.3756 7.1719C41.6959 7.14227 42.1444 7.12453 42.6535 7.17207C43.6763 7.26758 44.901 7.62136 45.8493 8.62358C47.3983 10.2613 47.408 12.4477 47.3375 14.2944C47.3209 14.7122 47.2797 15.2733 47.2311 15.9342L47.1943 16.4379C47.1311 17.3122 47.0643 18.3103 47.0303 19.3202C46.9963 20.3292 46.9948 21.3585 47.0638 22.2951C47.1324 23.2243 47.2725 24.0972 47.5396 24.7754C48.2 26.4596 49.4263 27.3863 50.5549 27.8893C50.6434 27.9287 50.7314 27.9656 50.8186 28.0001C50.7314 28.0346 50.6434 28.0715 50.5549 28.111C49.4263 28.614 48.1999 29.5408 47.5395 31.2251C47.2725 31.9033 47.1324 32.776 47.0638 33.7051C46.9948 34.6418 46.9963 35.6711 47.0303 36.68C47.0643 37.69 47.1311 38.6881 47.1943 39.5624L47.2311 40.066C47.2797 40.7267 47.3209 41.2876 47.3374 41.7053C47.4079 43.552 47.3983 45.7391 45.8493 47.3767C44.901 48.3789 43.6763 48.7327 42.6535 48.8282C42.1444 48.8757 41.6959 48.858 41.3756 48.8284C41.2159 48.8136 41.0892 48.796 41.0042 48.7824C40.9617 48.7756 40.9297 48.7699 40.9093 48.766L40.8875 48.7618L40.8837 48.761C40.8837 48.761 40.8841 48.7611 40.7795 49.247C40.6749 49.7328 40.6753 49.7329 40.6753 49.7329L40.677 49.7333L40.6803 49.734L40.6905 49.7361L40.725 49.7428C40.7542 49.7483 40.7954 49.7557 40.8475 49.764C40.9518 49.7806 41.1003 49.8012 41.2841 49.8181C41.6507 49.8521 42.1624 49.8724 42.7459 49.8179C43.9084 49.7093 45.3992 49.2987 46.5715 48.0597C48.4378 46.0865 48.4001 43.4861 48.3307 41.6666C48.3134 41.2303 48.2705 40.6465 48.2218 39.9838L48.1858 39.4908C48.1228 38.6191 48.0571 37.6366 48.0237 36.6466C47.9903 35.6555 47.9897 34.6654 48.0551 33.7782C48.1211 32.8836 48.2524 32.1276 48.4648 31.5883C49.0067 30.2056 50.0045 29.4446 50.9596 29.0189C51.8995 28.6 52.7821 28.5146 53.0928 28.4977C53.1211 28.4989 53.1443 28.4996 53.162 28.5L53.1891 28.5005L53.1974 28.5006L53.2002 28.5006L53.202 28.5006L53.2021 28.4937L53.2019 27.5066L53.2016 27.4997L53.2001 27.4997L53.1974 27.4997L53.1891 27.4998L53.162 27.5002C53.1443 27.5006 53.1211 27.5013 53.0928 27.5026C52.7821 27.4856 51.8995 27.4003 50.9596 26.9814C50.0045 26.5557 49.0065 25.7939 48.4645 24.4112C48.2521 23.872 48.1211 23.1167 48.0551 22.222C47.9897 21.3349 47.9903 20.3448 48.0237 19.3537C48.0571 18.3636 48.1228 17.3812 48.1858 16.5095L48.2218 16.0169C48.2705 15.354 48.3134 14.7694 48.3307 14.333C48.4002 12.5135 48.4378 9.91371 46.5714 7.94049C45.3991 6.70152 43.9084 6.29093 42.7459 6.18238C42.1624 6.12789 41.6507 6.1482 41.2841 6.18212C41.1003 6.19912 40.9518 6.21965 40.8475 6.23629C40.7954 6.24462 40.7542 6.25198 40.725 6.25748L40.6905 6.2642L40.6803 6.2663L40.677 6.267L40.6753 6.26736C40.6753 6.26736 40.6749 6.26745 40.7795 6.75332Z" fill="#F3652B"/>
<path d="M35.3416 17.4615C35.5374 17.0047 35.5372 17.0046 35.5372 17.0046L35.5333 17.0029L35.5247 16.9993L35.4939 16.9865C35.4675 16.9757 35.4295 16.9604 35.3808 16.9415C35.2835 16.9036 35.1433 16.851 34.9673 16.7906C34.6159 16.6699 34.1196 16.5169 33.5368 16.3867C32.3827 16.1289 30.8372 15.9482 29.3983 16.3309C28.1771 16.6546 27.4917 17.7939 27.1102 18.9877C26.7211 20.2056 26.5933 21.6406 26.5933 22.8363V24.0341H23.2759V25.0281H26.5933V42.71H27.5873V25.0281H33.7039V24.0341H27.5873V22.8363C27.5873 21.694 27.7113 20.3724 28.0571 19.2902C28.4105 18.1841 28.9432 17.4798 29.6535 17.2915C30.8671 16.9687 32.2293 17.1131 33.32 17.3568C33.8596 17.4774 34.3199 17.6192 34.6445 17.7307C34.8065 17.7864 34.9342 17.8342 35.0202 17.8677C35.0632 17.8845 35.0958 17.8976 35.117 17.9063L35.1403 17.916L35.146 17.9184C35.146 17.9184 35.1458 17.9183 35.3416 17.4615Z" fill="#F3652B"/>
</svg>
