<svg width="28" height="28" viewBox="0 0 28 28" fill="none" xmlns="http://www.w3.org/2000/svg">
<path fill-rule="evenodd" clip-rule="evenodd" d="M19.7424 20.0239C22.5076 17.3019 24.0527 13.5978 24.032 9.74088C24.032 9.52032 24.032 9.30094 24.02 9.08275C25.0301 8.36114 25.9034 7.46918 26.6 6.44785C25.6577 6.8585 24.6587 7.12827 23.636 7.24828C24.7105 6.61055 25.5159 5.61088 25.904 4.43313C24.8871 5.02674 23.7751 5.4446 22.616 5.66876C21.016 3.98888 18.4756 3.57641 16.4158 4.66209C14.356 5.74777 13.2875 8.06243 13.808 10.3113C9.65502 10.1064 5.78375 8.17421 3.15202 4.99284C1.78005 7.32081 2.48563 10.3023 4.76002 11.7876C3.93571 11.7647 3.12906 11.5463 2.40802 11.1508V11.2149C2.41326 13.6429 4.1503 15.7305 6.56002 16.2048C5.79687 16.4092 4.99666 16.4392 4.22002 16.2926C4.90407 18.3695 6.84606 19.7891 9.05602 19.8275C7.22296 21.2436 4.96275 22.0122 2.63602 22.0106C2.22294 22.0095 1.81026 21.985 1.40002 21.9371C3.76476 23.4309 6.51343 24.2231 9.32002 24.2198C13.2229 24.2587 16.9772 22.746 19.7424 20.0239Z" fill="white"/>
</svg>
