<svg width="17" height="16" viewBox="0 0 17 16" fill="none" xmlns="http://www.w3.org/2000/svg">
<path d="M11.2015 7.53568C11.592 7.92621 11.592 8.55937 11.2015 8.9499L6.95885 13.1925C6.56832 13.5831 5.93516 13.5831 5.54463 13.1925C5.15411 12.802 5.15411 12.1689 5.54463 11.7783L9.08017 8.24279L5.5446 4.70723C5.15408 4.3167 5.15408 3.68354 5.5446 3.29302C5.93513 2.90249 6.56829 2.90249 6.95882 3.29302L11.2015 7.53568C11.2015 7.53567 11.2015 7.53569 11.2015 7.53568Z" fill="white"/>
<path d="M11.2015 7.53568C11.592 7.92621 11.592 8.55937 11.2015 8.9499L6.95885 13.1925C6.56832 13.5831 5.93516 13.5831 5.54463 13.1925C5.15411 12.802 5.15411 12.1689 5.54463 11.7783L9.08017 8.24279L5.5446 4.70723C5.15408 4.3167 5.15408 3.68354 5.5446 3.29302C5.93513 2.90249 6.56829 2.90249 6.95882 3.29302L11.2015 7.53568C11.2015 7.53567 11.2015 7.53569 11.2015 7.53568Z" fill="white"/>
</svg>
