<svg width="56" height="56" viewBox="0 0 56 56" fill="none" xmlns="http://www.w3.org/2000/svg">
<path d="M15.2207 6.7532C15.1161 7.23907 15.1165 7.23914 15.1165 7.23914L15.1126 7.23836L15.0909 7.23413C15.0705 7.23028 15.0385 7.22453 14.996 7.21775C14.911 7.20418 14.7843 7.18655 14.6245 7.17178C14.3042 7.14214 13.8558 7.12441 13.3467 7.17195C12.3239 7.26746 11.0992 7.62124 10.1509 8.62346C8.60189 10.2611 8.59221 12.4476 8.66272 14.2943C8.67924 14.7121 8.72046 15.2731 8.76903 15.9341L8.80583 16.4377C8.86902 17.312 8.93587 18.3101 8.96989 19.3201C9.00387 20.329 9.00542 21.3583 8.93634 22.295C8.86782 23.2242 8.72764 24.0971 8.46058 24.7753C7.80018 26.4595 6.57385 27.3861 5.44525 27.8892C5.35677 27.9286 5.26878 27.9655 5.1816 28C5.26878 28.0345 5.35677 28.0714 5.44525 28.1109C6.5739 28.6139 7.80029 29.5406 8.46067 31.225C8.72767 31.9032 8.86782 32.7759 8.93634 33.705C9.00542 34.6417 9.00387 35.671 8.96989 36.6799C8.93587 37.6899 8.86902 38.688 8.80583 39.5623L8.76903 40.0659C8.72049 40.7266 8.67928 41.2874 8.66274 41.7052C8.59223 43.5518 8.60191 45.7389 10.1509 47.3766C11.0992 48.3788 12.3239 48.7326 13.3467 48.8281C13.8558 48.8756 14.3042 48.8579 14.6245 48.8283C14.7843 48.8135 14.911 48.7959 14.996 48.7823C15.0385 48.7755 15.0705 48.7698 15.0909 48.7659L15.1126 48.7617L15.1165 48.7609C15.1165 48.7609 15.1161 48.761 15.2207 49.2468C15.3253 49.7327 15.3249 49.7328 15.3249 49.7328L15.3232 49.7332L15.3199 49.7339L15.3096 49.7359L15.2751 49.7427C15.246 49.7482 15.2048 49.7555 15.1526 49.7639C15.0483 49.7805 14.8999 49.801 14.7161 49.818C14.3495 49.852 13.8378 49.8723 13.2542 49.8178C12.0918 49.7092 10.601 49.2986 9.42871 48.0596C7.56236 46.0864 7.60002 43.486 7.66949 41.6665C7.68675 41.2301 7.72967 40.6462 7.7784 39.9833L7.81442 39.4906C7.87742 38.6189 7.94311 37.6365 7.97645 36.6465C8.00983 35.6554 8.01046 34.6652 7.94504 33.7781C7.87906 32.8835 7.74776 32.1275 7.53541 31.5882C6.99344 30.2055 5.9957 29.4445 5.04059 29.0188C4.10071 28.5998 3.2181 28.5145 2.90741 28.4976C2.87906 28.4988 2.85585 28.4995 2.83817 28.4999L2.81103 28.5004L2.80278 28.5005L2.80002 28.5005L2.79822 28.5005L2.7981 28.4935L2.79825 27.5065L2.79858 27.4995L2.80005 27.4995L2.80281 27.4996L2.81105 27.4996L2.83819 27.5001C2.85586 27.5005 2.87906 27.5012 2.90741 27.5024C3.21811 27.4855 4.10072 27.4002 5.04059 26.9813C5.9957 26.5556 6.99372 25.7938 7.5357 24.4111C7.74804 23.8719 7.87906 23.1165 7.94504 22.2219C8.01046 21.3348 8.00983 20.3446 7.97645 19.3536C7.94311 18.3635 7.87742 17.3811 7.81442 16.5094L7.77841 16.0168C7.72968 15.3539 7.68672 14.7692 7.66947 14.3329C7.6 12.5134 7.56242 9.91359 9.42877 7.94037C10.601 6.7014 12.0918 6.29081 13.2542 6.18226C13.8378 6.12777 14.3495 6.14808 14.7161 6.182C14.8999 6.199 15.0483 6.21953 15.1526 6.23617C15.2048 6.24449 15.246 6.25186 15.2751 6.25736L15.3096 6.26408L15.3199 6.26618L15.3232 6.26688L15.3249 6.26724C15.3249 6.26724 15.3253 6.26732 15.2207 6.7532Z" fill="#F3652B"/>
<path d="M40.7795 6.7532C40.8841 7.23907 40.8837 7.23914 40.8837 7.23914L40.8875 7.23836L40.9093 7.23413C40.9297 7.23028 40.9617 7.22453 41.0042 7.21775C41.0892 7.20418 41.2159 7.18655 41.3756 7.17178C41.6959 7.14214 42.1444 7.12441 42.6535 7.17195C43.6763 7.26746 44.901 7.62124 45.8493 8.62346C47.3983 10.2611 47.408 12.4476 47.3375 14.2943C47.3209 14.7121 47.2797 15.2731 47.2311 15.9341L47.1943 16.4377C47.1312 17.312 47.0643 18.3101 47.0303 19.3201C46.9963 20.329 46.9947 21.3583 47.0638 22.295C47.1324 23.2242 47.2725 24.0971 47.5396 24.7753C48.2 26.4595 49.4263 27.3861 50.5549 27.8892C50.6434 27.9286 50.7314 27.9655 50.8186 28C50.7314 28.0345 50.6434 28.0714 50.5549 28.1109C49.4263 28.6139 48.1999 29.5406 47.5395 31.225C47.2725 31.9032 47.1323 32.7759 47.0638 33.705C46.9947 34.6417 46.9963 35.671 47.0303 36.6799C47.0643 37.6899 47.1312 38.688 47.1943 39.5623L47.2311 40.0659C47.2797 40.7266 47.3209 41.2874 47.3374 41.7052C47.4079 43.5518 47.3983 45.7389 45.8493 47.3766C44.901 48.3788 43.6763 48.7326 42.6535 48.8281C42.1444 48.8756 41.6959 48.8579 41.3756 48.8283C41.2159 48.8135 41.0892 48.7959 41.0042 48.7823C40.9617 48.7755 40.9297 48.7698 40.9093 48.7659L40.8875 48.7617L40.8837 48.7609C40.8837 48.7609 40.8841 48.761 40.7795 49.2468C40.6749 49.7327 40.6753 49.7328 40.6753 49.7328L40.677 49.7332L40.6803 49.7339L40.6905 49.7359L40.725 49.7427C40.7542 49.7482 40.7954 49.7555 40.8475 49.7639C40.9518 49.7805 41.1003 49.801 41.2841 49.818C41.6507 49.852 42.1624 49.8723 42.7459 49.8178C43.9084 49.7092 45.3992 49.2986 46.5715 48.0596C48.4378 46.0864 48.4001 43.486 48.3307 41.6665C48.3134 41.2302 48.2705 40.6464 48.2218 39.9837L48.1858 39.4906C48.1228 38.6189 48.0571 37.6365 48.0237 36.6465C47.9903 35.6554 47.9897 34.6652 48.0551 33.7781C48.1211 32.8835 48.2524 32.1275 48.4648 31.5882C49.0067 30.2055 50.0045 29.4445 50.9596 29.0188C51.8995 28.5998 52.7821 28.5145 53.0928 28.4976C53.1211 28.4988 53.1443 28.4995 53.162 28.4999L53.1891 28.5004L53.1974 28.5005L53.2002 28.5005L53.202 28.5005L53.2021 28.4935L53.2019 27.5065L53.2016 27.4995L53.2001 27.4995L53.1974 27.4996L53.1891 27.4996L53.162 27.5001C53.1443 27.5005 53.1211 27.5012 53.0928 27.5024C52.7821 27.4855 51.8995 27.4002 50.9596 26.9813C50.0045 26.5556 49.0065 25.7938 48.4645 24.4111C48.2521 23.8719 48.1211 23.1165 48.0551 22.2219C47.9897 21.3348 47.9903 20.3446 48.0237 19.3536C48.0571 18.3635 48.1228 17.3811 48.1858 16.5094L48.2218 16.0168C48.2705 15.3539 48.3134 14.7692 48.3307 14.3329C48.4002 12.5134 48.4378 9.91359 46.5714 7.94037C45.3991 6.7014 43.9084 6.29081 42.7459 6.18226C42.1624 6.12777 41.6507 6.14808 41.2841 6.182C41.1003 6.199 40.9518 6.21953 40.8475 6.23617C40.7954 6.24449 40.7542 6.25186 40.725 6.25736L40.6905 6.26408L40.6803 6.26618L40.677 6.26688L40.6753 6.26724C40.6753 6.26724 40.6749 6.26732 40.7795 6.7532Z" fill="#F3652B"/>
<path d="M35.3416 17.4614C35.5374 17.0046 35.5372 17.0044 35.5372 17.0044L35.5333 17.0028L35.5247 16.9992L35.4939 16.9864C35.4675 16.9756 35.4295 16.9603 35.3808 16.9414C35.2835 16.9035 35.1433 16.8509 34.9673 16.7905C34.6159 16.6698 34.1196 16.5168 33.5368 16.3866C32.3827 16.1288 30.8372 15.9481 29.3983 16.3308C28.1771 16.6545 27.4917 17.7938 27.1102 18.9876C26.7211 20.2054 26.5933 21.6404 26.5933 22.8362V24.034H23.2759V25.028H26.5933V42.7099H27.5873V25.028H33.7039V24.034H27.5873V22.8362C27.5873 21.6939 27.7113 20.3723 28.0571 19.2901C28.4105 18.1839 28.9432 17.4797 29.6535 17.2914C30.8671 16.9686 32.2293 17.113 33.32 17.3567C33.8596 17.4772 34.3199 17.6191 34.6445 17.7306C34.8065 17.7863 34.9342 17.8341 35.0202 17.8676C35.0632 17.8844 35.0958 17.8975 35.117 17.9062L35.1403 17.9158L35.146 17.9183C35.146 17.9183 35.1458 17.9182 35.3416 17.4614Z" fill="#F3652B"/>
</svg>
