<svg width="56" height="56" viewBox="0 0 56 56" fill="none" xmlns="http://www.w3.org/2000/svg">
<path fill-rule="evenodd" clip-rule="evenodd" d="M26.2371 6.27818C25.9745 6.27818 25.7617 6.49102 25.7617 6.75358C25.7617 7.01613 25.9745 7.22898 26.2371 7.22898C26.4996 7.22898 26.7125 7.01613 26.7125 6.75358C26.7125 6.49102 26.4996 6.27818 26.2371 6.27818ZM24.7677 6.75358C24.7677 5.94205 25.4256 5.28418 26.2371 5.28418C27.0486 5.28418 27.7065 5.94205 27.7065 6.75358C27.7065 7.5651 27.0486 8.22298 26.2371 8.22298C25.4256 8.22298 24.7677 7.5651 24.7677 6.75358ZM6.90704 6.27818C6.64448 6.27818 6.43164 6.49102 6.43164 6.75358C6.43164 7.01613 6.64448 7.22898 6.90704 7.22898C7.16959 7.22898 7.38243 7.01613 7.38243 6.75358C7.38243 6.49102 7.16959 6.27818 6.90704 6.27818ZM5.43764 6.75358C5.43764 5.94205 6.09551 5.28418 6.90704 5.28418C7.71856 5.28418 8.37643 5.94205 8.37643 6.75358C8.37643 7.5651 7.71856 8.22298 6.90704 8.22298C6.09551 8.22298 5.43764 7.5651 5.43764 6.75358ZM11.7395 6.27818C11.477 6.27818 11.2641 6.49102 11.2641 6.75358C11.2641 7.01613 11.477 7.22898 11.7395 7.22898C12.0021 7.22898 12.2149 7.01613 12.2149 6.75358C12.2149 6.49102 12.0021 6.27818 11.7395 6.27818ZM10.2701 6.75358C10.2701 5.94205 10.928 5.28418 11.7395 5.28418C12.5511 5.28418 13.2089 5.94205 13.2089 6.75358C13.2089 7.5651 12.5511 8.22298 11.7395 8.22298C10.928 8.22298 10.2701 7.5651 10.2701 6.75358ZM16.5721 6.27818C16.3095 6.27818 16.0967 6.49102 16.0967 6.75358C16.0967 7.01613 16.3095 7.22898 16.5721 7.22898C16.8346 7.22898 17.0475 7.01613 17.0475 6.75358C17.0475 6.49102 16.8346 6.27818 16.5721 6.27818ZM15.1027 6.75358C15.1027 5.94205 15.7605 5.28418 16.5721 5.28418C17.3836 5.28418 18.0415 5.94205 18.0415 6.75358C18.0415 7.5651 17.3836 8.22298 16.5721 8.22298C15.7605 8.22298 15.1027 7.5651 15.1027 6.75358ZM21.4046 6.27818C21.142 6.27818 20.9292 6.49102 20.9292 6.75358C20.9292 7.01613 21.142 7.22898 21.4046 7.22898C21.6671 7.22898 21.88 7.01613 21.88 6.75358C21.88 6.49102 21.6671 6.27818 21.4046 6.27818ZM19.9352 6.75358C19.9352 5.94205 20.593 5.28418 21.4046 5.28418C22.2161 5.28418 22.874 5.94205 22.874 6.75358C22.874 7.5651 22.2161 8.22298 21.4046 8.22298C20.593 8.22298 19.9352 7.5651 19.9352 6.75358ZM33.6467 10.8506L36.9504 14.1543L36.2475 14.8572L31.744 10.3536L36.2475 5.85005L36.9504 6.55291L33.6467 9.85661H50.3202V26.6134H49.3262V10.8506H33.6467ZM6.90703 11.1112C6.64448 11.1112 6.43163 11.3241 6.43163 11.5866C6.43163 11.8492 6.64448 12.062 6.90703 12.062C7.16959 12.062 7.38243 11.8492 7.38243 11.5866C7.38243 11.3241 7.16959 11.1112 6.90703 11.1112ZM5.43763 11.5866C5.43763 10.7751 6.09551 10.1172 6.90703 10.1172C7.71856 10.1172 8.37643 10.7751 8.37643 11.5866C8.37643 12.3982 7.71856 13.056 6.90703 13.056C6.09551 13.056 5.43763 12.3982 5.43763 11.5866ZM26.2371 11.1112C25.9745 11.1112 25.7617 11.3241 25.7617 11.5866C25.7617 11.8492 25.9745 12.062 26.2371 12.062C26.4996 12.062 26.7125 11.8492 26.7125 11.5866C26.7125 11.3241 26.4996 11.1112 26.2371 11.1112ZM24.7677 11.5866C24.7677 10.7751 25.4256 10.1172 26.2371 10.1172C27.0486 10.1172 27.7065 10.7751 27.7065 11.5866C27.7065 12.3982 27.0486 13.056 26.2371 13.056C25.4256 13.056 24.7677 12.3982 24.7677 11.5866ZM6.90702 15.9435C6.64446 15.9435 6.43162 16.1564 6.43162 16.4189C6.43162 16.6815 6.64446 16.8943 6.90702 16.8943C7.16957 16.8943 7.38242 16.6815 7.38242 16.4189C7.38242 16.1564 7.16957 15.9435 6.90702 15.9435ZM5.43762 16.4189C5.43762 15.6074 6.09549 14.9495 6.90702 14.9495C7.71855 14.9495 8.37642 15.6074 8.37642 16.4189C8.37642 17.2305 7.71855 17.8883 6.90702 17.8883C6.09549 17.8883 5.43762 17.2305 5.43762 16.4189ZM26.2371 15.9435C25.9745 15.9435 25.7617 16.1564 25.7617 16.4189C25.7617 16.6815 25.9745 16.8943 26.2371 16.8943C26.4996 16.8943 26.7125 16.6815 26.7125 16.4189C26.7125 16.1564 26.4996 15.9435 26.2371 15.9435ZM24.7677 16.4189C24.7677 15.6074 25.4255 14.9495 26.2371 14.9495C27.0486 14.9495 27.7065 15.6074 27.7065 16.4189C27.7065 17.2305 27.0486 17.8883 26.2371 17.8883C25.4255 17.8883 24.7677 17.2305 24.7677 16.4189ZM6.90702 20.7758C6.64446 20.7758 6.43162 20.9887 6.43162 21.2512C6.43162 21.5138 6.64446 21.7266 6.90702 21.7266C7.16957 21.7266 7.38242 21.5138 7.38242 21.2512C7.38242 20.9887 7.16957 20.7758 6.90702 20.7758ZM5.43762 21.2512C5.43762 20.4397 6.09549 19.7818 6.90702 19.7818C7.71855 19.7818 8.37642 20.4397 8.37642 21.2512C8.37642 22.0627 7.71855 22.7206 6.90702 22.7206C6.09549 22.7206 5.43762 22.0627 5.43762 21.2512ZM26.2371 20.7758C25.9745 20.7758 25.7617 20.9887 25.7617 21.2512C25.7617 21.5138 25.9745 21.7266 26.2371 21.7266C26.4996 21.7266 26.7125 21.5138 26.7125 21.2512C26.7125 20.9887 26.4996 20.7758 26.2371 20.7758ZM24.7677 21.2512C24.7677 20.4397 25.4255 19.7818 26.2371 19.7818C27.0486 19.7818 27.7065 20.4397 27.7065 21.2512C27.7065 22.0627 27.0486 22.7206 26.2371 22.7206C25.4255 22.7206 24.7677 22.0627 24.7677 21.2512ZM6.90702 25.6089C6.64446 25.6089 6.43162 25.8217 6.43162 26.0843C6.43162 26.3468 6.64446 26.5597 6.90702 26.5597C7.16957 26.5597 7.38242 26.3468 7.38242 26.0843C7.38242 25.8217 7.16957 25.6089 6.90702 25.6089ZM5.43762 26.0843C5.43762 25.2727 6.09549 24.6149 6.90702 24.6149C7.71855 24.6149 8.37642 25.2727 8.37642 26.0843C8.37642 26.8958 7.71855 27.5537 6.90702 27.5537C6.09549 27.5537 5.43762 26.8958 5.43762 26.0843ZM11.7395 25.6089C11.477 25.6089 11.2641 25.8217 11.2641 26.0843C11.2641 26.3468 11.477 26.5597 11.7395 26.5597C12.0021 26.5597 12.2149 26.3468 12.2149 26.0843C12.2149 25.8217 12.0021 25.6089 11.7395 25.6089ZM10.2701 26.0843C10.2701 25.2727 10.928 24.6149 11.7395 24.6149C12.5511 24.6149 13.2089 25.2727 13.2089 26.0843C13.2089 26.8958 12.5511 27.5537 11.7395 27.5537C10.928 27.5537 10.2701 26.8958 10.2701 26.0843ZM16.5721 25.6089C16.3095 25.6089 16.0967 25.8217 16.0967 26.0843C16.0967 26.3468 16.3095 26.5597 16.5721 26.5597C16.8346 26.5597 17.0475 26.3468 17.0475 26.0843C17.0475 25.8217 16.8346 25.6089 16.5721 25.6089ZM15.1027 26.0843C15.1027 25.2727 15.7605 24.6149 16.5721 24.6149C17.3836 24.6149 18.0415 25.2727 18.0415 26.0843C18.0415 26.8958 17.3836 27.5537 16.5721 27.5537C15.7605 27.5537 15.1027 26.8958 15.1027 26.0843ZM21.4046 25.6089C21.142 25.6089 20.9292 25.8217 20.9292 26.0843C20.9292 26.3468 21.142 26.5597 21.4046 26.5597C21.6671 26.5597 21.88 26.3468 21.88 26.0843C21.88 25.8217 21.6671 25.6089 21.4046 25.6089ZM19.9352 26.0843C19.9352 25.2727 20.593 24.6149 21.4046 24.6149C22.2161 24.6149 22.874 25.2727 22.874 26.0843C22.874 26.8958 22.2161 27.5537 21.4046 27.5537C20.593 27.5537 19.9352 26.8958 19.9352 26.0843ZM26.2371 25.6089C25.9745 25.6089 25.7617 25.8217 25.7617 26.0843C25.7617 26.3468 25.9745 26.5597 26.2371 26.5597C26.4996 26.5597 26.7125 26.3468 26.7125 26.0843C26.7125 25.8217 26.4996 25.6089 26.2371 25.6089ZM24.7677 26.0843C24.7677 25.2727 25.4255 24.6149 26.2371 24.6149C27.0486 24.6149 27.7065 25.2727 27.7065 26.0843C27.7065 26.8958 27.0486 27.5537 26.2371 27.5537C25.4255 27.5537 24.7677 26.8958 24.7677 26.0843ZM30.0543 30.2084H50.5623V50.7164H30.0543V30.2084ZM31.0483 31.2024V49.7224H49.5683V31.2024H31.0483ZM5.70474 30.441H6.69874L6.69874 45.0745L21.8461 45.0745L18.5424 41.7708L19.2452 41.0679L23.7488 45.5715L19.2452 50.0751L18.5424 49.3722L21.8461 46.0685L5.70474 46.0685L5.70474 30.441Z" fill="#F3652B"/>
</svg>
