<svg width="56" height="56" viewBox="0 0 56 56" fill="none" xmlns="http://www.w3.org/2000/svg">
<path fill-rule="evenodd" clip-rule="evenodd" d="M7.62637 13.1117C8.34908 22.2125 9.65253 29.6878 12.6359 35.7264C15.6391 41.8052 20.3612 46.46 28.0003 49.8313C35.6393 46.46 40.3615 41.8052 43.3647 35.7264C46.3479 29.6881 47.6514 22.2132 48.3741 13.113C42.1559 13.0183 37.2415 11.2928 33.7601 9.56834C31.9702 8.68168 30.5596 7.79557 29.5493 7.13466C29.353 7.00621 29.1745 6.88816 29.0123 6.78079C28.7516 6.60829 28.5325 6.46336 28.3477 6.3472C28.199 6.25369 28.0881 6.18887 28.0079 6.14866C28.0026 6.14598 27.9976 6.1435 27.9929 6.14122C27.9815 6.14596 27.9688 6.15148 27.9545 6.15789C27.8592 6.20067 27.7286 6.26798 27.558 6.36186C27.3144 6.49594 27.0134 6.67057 26.6524 6.88006C26.5073 6.96425 26.3525 7.05407 26.1879 7.14915C25.0478 7.80746 23.4814 8.69001 21.5906 9.57328C17.9338 11.2815 13.0404 13.0036 7.62637 13.1117ZM28.0592 6.1169C28.0592 6.11694 28.058 6.11728 28.0558 6.11778ZM27.7485 5.17235C27.8077 5.15351 27.8987 5.12891 28.0003 5.12891C28.1825 5.12891 28.3553 5.21083 28.4538 5.26025C28.5778 5.32249 28.7213 5.40793 28.8768 5.50567C29.0702 5.62726 29.3063 5.78348 29.5764 5.96214C29.7373 6.0686 29.9103 6.18302 30.0935 6.30283C31.0878 6.95332 32.4614 7.81575 34.2013 8.67763C37.6802 10.4009 42.6262 12.1231 48.9111 12.1231H49.4475L49.4066 12.658C48.6904 22.0247 47.3853 29.8325 44.2559 36.1667C41.1146 42.5249 36.1523 47.3655 28.1988 50.8296L28.0003 50.916L27.8018 50.8296C19.8483 47.3655 14.886 42.5249 11.7447 36.1667C8.61533 29.8325 7.31019 22.0247 6.594 12.658L6.5531 12.1231H7.08955C12.5145 12.1231 17.4609 10.4053 21.1699 8.67269C23.0222 7.80742 24.5598 6.94143 25.6908 6.28834C25.8484 6.19734 25.9991 6.10991 26.1421 6.02691C26.5084 5.81437 26.8246 5.63091 27.0788 5.49102C27.2557 5.39365 27.4146 5.31069 27.5475 5.25102C27.614 5.22118 27.6823 5.19341 27.7485 5.17235ZM19.3502 19.9523H25.1303V22.3454H30.8703V19.9523H36.6504V25.7325H34.2573V30.2942H36.6504V36.0743H30.8703V33.6813H25.1303V36.0743H19.3502V30.2942H21.7433V25.7325H19.3502V19.9523ZM22.7373 25.7325V30.2942H25.1303V32.6873H30.8703V30.2942H33.2634V25.7325H30.8703V23.3394H25.1303V25.7325H22.7373ZM20.3442 20.9463V24.7385H24.1363V20.9463H20.3442ZM31.8643 20.9463V24.7385H35.6564V20.9463H31.8643ZM20.3442 31.2882V35.0803H24.1363V31.2882H20.3442ZM31.8643 31.2882V35.0803H35.6564V31.2882H31.8643Z" fill="#F3652B"/>
</svg>
