<svg width="17" height="16" viewBox="0 0 17 16" fill="none" xmlns="http://www.w3.org/2000/svg">
<path d="M11.3682 7.53556C11.7588 7.92609 11.7588 8.55925 11.3682 8.94978L7.12559 13.1924C6.73507 13.5829 6.1019 13.5829 5.71138 13.1924C5.32086 12.8019 5.32086 12.1687 5.71138 11.7782L9.24691 8.24267L5.71135 4.70711C5.32083 4.31658 5.32083 3.68342 5.71135 3.29289C6.10187 2.90237 6.73504 2.90237 7.12556 3.29289L11.3682 7.53556C11.3682 7.53555 11.3682 7.53557 11.3682 7.53556Z" fill="#1E1E1E"/>
<path d="M11.3682 7.53556C11.7588 7.92609 11.7588 8.55925 11.3682 8.94978L7.12559 13.1924C6.73507 13.5829 6.1019 13.5829 5.71138 13.1924C5.32086 12.8019 5.32086 12.1687 5.71138 11.7782L9.24691 8.24267L5.71135 4.70711C5.32083 4.31658 5.32083 3.68342 5.71135 3.29289C6.10187 2.90237 6.73504 2.90237 7.12556 3.29289L11.3682 7.53556C11.3682 7.53555 11.3682 7.53557 11.3682 7.53556Z" fill="#1E1E1E"/>
</svg>
