<svg width="17" height="16" viewBox="0 0 17 16" fill="none" xmlns="http://www.w3.org/2000/svg">
<path d="M11.5347 7.53562C11.9253 7.92615 11.9253 8.55931 11.5347 8.94984L7.2921 13.1925C6.90157 13.583 6.26841 13.583 5.87788 13.1925C5.48736 12.802 5.48736 12.1688 5.87788 11.7783L9.41342 8.24273L5.87785 4.70717C5.48733 4.31664 5.48733 3.68348 5.87785 3.29295C6.26838 2.90243 6.90154 2.90243 7.29207 3.29295L11.5347 7.53562C11.5347 7.53561 11.5347 7.53563 11.5347 7.53562Z" fill="white"/>
<path d="M11.5347 7.53562C11.9253 7.92615 11.9253 8.55931 11.5347 8.94984L7.2921 13.1925C6.90157 13.583 6.26841 13.583 5.87788 13.1925C5.48736 12.802 5.48736 12.1688 5.87788 11.7783L9.41342 8.24273L5.87785 4.70717C5.48733 4.31664 5.48733 3.68348 5.87785 3.29295C6.26838 2.90243 6.90154 2.90243 7.29207 3.29295L11.5347 7.53562C11.5347 7.53561 11.5347 7.53563 11.5347 7.53562Z" fill="white"/>
</svg>
