<svg width="734" height="16" viewBox="0 0 734 16" fill="none" xmlns="http://www.w3.org/2000/svg">
<path d="M366.75 4C417.384 4 458.438 3.10456 458.438 2C458.438 0.895437 417.384 0 366.75 0C316.116 0 275.062 0.895437 275.062 2C275.062 3.10456 316.116 4 366.75 4Z" fill="#6B6C7E"/>
<path d="M458.438 7.98438C458.438 9.08894 417.384 9.98438 366.75 9.98438C316.116 9.98438 275.062 9.08894 275.062 7.98438C275.062 6.87981 316.116 5.98438 366.75 5.98438C417.384 5.98438 458.438 6.87981 458.438 7.98438Z" fill="#6B6C7E"/>
<path d="M458.438 14C458.438 15.1046 417.384 16 366.75 16C316.116 16 275.062 15.1046 275.062 14C275.062 12.8954 316.116 12 366.75 12C417.384 12 458.438 12.8954 458.438 14Z" fill="#6B6C7E"/>
</svg>
