<svg width="56" height="56" viewBox="0 0 56 56" fill="none" xmlns="http://www.w3.org/2000/svg">
<path fill-rule="evenodd" clip-rule="evenodd" d="M7.90297 2.78174H24.3765V14.7707H16.6406L16.6405 19.283L24.0698 27.5184L40.3611 27.5184V41.2293H48.097V53.2182H31.6235V41.2293H39.3671V28.5124L24.0697 28.5124L16.6405 36.7402L16.6406 41.2293H24.3765V53.2182H7.90297V41.2293H15.6466L15.6465 36.7402L7.76868 28.0155L15.6465 19.283L15.6466 14.7707H7.90297V2.78174ZM16.1435 20.216L9.10765 28.0152L16.1435 35.8074L23.1793 28.0152L16.1435 20.216ZM8.89697 3.77574V13.7767H23.3825V3.77574H8.89697ZM8.89697 42.2233V52.2242H23.3825V42.2233H8.89697ZM32.6175 42.2233V52.2242H47.103V42.2233H32.6175Z" fill="#F3652B"/>
</svg>
