<svg width="17" height="16" viewBox="0 0 17 16" fill="none" xmlns="http://www.w3.org/2000/svg">
<path d="M11.5347 7.53556C11.9253 7.92609 11.9253 8.55925 11.5347 8.94978L7.2921 13.1924C6.90157 13.5829 6.26841 13.5829 5.87788 13.1924C5.48736 12.8019 5.48736 12.1687 5.87788 11.7782L9.41342 8.24267L5.87785 4.70711C5.48733 4.31658 5.48733 3.68342 5.87785 3.29289C6.26838 2.90237 6.90154 2.90237 7.29207 3.29289L11.5347 7.53556C11.5347 7.53557 11.5347 7.53555 11.5347 7.53556Z" fill="white"/>
<path d="M11.5347 7.53556C11.9253 7.92609 11.9253 8.55925 11.5347 8.94978L7.2921 13.1924C6.90157 13.5829 6.26841 13.5829 5.87788 13.1924C5.48736 12.8019 5.48736 12.1687 5.87788 11.7782L9.41342 8.24267L5.87785 4.70711C5.48733 4.31658 5.48733 3.68342 5.87785 3.29289C6.26838 2.90237 6.90154 2.90237 7.29207 3.29289L11.5347 7.53556C11.5347 7.53557 11.5347 7.53555 11.5347 7.53556Z" fill="white"/>
</svg>
