<svg width="28" height="28" viewBox="0 0 28 28" fill="none" xmlns="http://www.w3.org/2000/svg">
<path fill-rule="evenodd" clip-rule="evenodd" d="M11.1144 4.1999C7.27178 4.1999 4.15669 7.31499 4.15669 11.1577C4.15669 15.0003 7.27178 18.1154 11.1144 18.1154C13.0544 18.1154 14.8068 17.3233 16.0703 16.0413C17.3097 14.7837 18.0722 13.0611 18.0722 11.1577C18.0722 7.31499 14.9571 4.1999 11.1144 4.1999ZM1.35669 11.1577C1.35669 5.76859 5.72538 1.3999 11.1144 1.3999C16.5035 1.3999 20.8722 5.76859 20.8722 11.1577C20.8722 13.3244 20.1648 15.3277 18.97 16.9467L26.2333 24.21L24.2534 26.1899L17.0026 18.9391C15.3666 20.1786 13.3257 20.9154 11.1144 20.9154C5.72538 20.9154 1.35669 16.5467 1.35669 11.1577Z" fill="white"/>
</svg>
