<svg width="16" height="16" viewBox="0 0 16 16" fill="none" xmlns="http://www.w3.org/2000/svg">
<path d="M10.8682 7.53562C11.2588 7.92615 11.2588 8.55931 10.8682 8.94984L6.62559 13.1925C6.23507 13.583 5.6019 13.583 5.21138 13.1925C4.82086 12.802 4.82086 12.1688 5.21138 11.7783L8.74691 8.24273L5.21135 4.70717C4.82083 4.31664 4.82083 3.68348 5.21135 3.29295C5.60187 2.90243 6.23504 2.90243 6.62556 3.29295L10.8682 7.53562C10.8682 7.53561 10.8682 7.53563 10.8682 7.53562Z" fill="#1E1E1E"/>
<path d="M10.8682 7.53562C11.2588 7.92615 11.2588 8.55931 10.8682 8.94984L6.62559 13.1925C6.23507 13.583 5.6019 13.583 5.21138 13.1925C4.82086 12.802 4.82086 12.1688 5.21138 11.7783L8.74691 8.24273L5.21135 4.70717C4.82083 4.31664 4.82083 3.68348 5.21135 3.29295C5.60187 2.90243 6.23504 2.90243 6.62556 3.29295L10.8682 7.53562C10.8682 7.53561 10.8682 7.53563 10.8682 7.53562Z" fill="#1E1E1E"/>
</svg>
