<svg width="734" height="16" viewBox="0 0 734 16" fill="none" xmlns="http://www.w3.org/2000/svg">
<path d="M367.25 4C417.884 4 458.938 3.10456 458.938 2C458.938 0.895437 417.884 0 367.25 0C316.616 0 275.562 0.895437 275.562 2C275.562 3.10456 316.616 4 367.25 4Z" fill="#6B6C7E"/>
<path d="M458.938 7.98438C458.938 9.08894 417.884 9.98438 367.25 9.98438C316.616 9.98438 275.562 9.08894 275.562 7.98438C275.562 6.87981 316.616 5.98438 367.25 5.98438C417.884 5.98438 458.938 6.87981 458.938 7.98438Z" fill="#6B6C7E"/>
<path d="M458.938 14C458.938 15.1046 417.884 16 367.25 16C316.616 16 275.562 15.1046 275.562 14C275.562 12.8954 316.616 12 367.25 12C417.884 12 458.938 12.8954 458.938 14Z" fill="#6B6C7E"/>
</svg>
