<svg width="56" height="56" viewBox="0 0 56 56" fill="none" xmlns="http://www.w3.org/2000/svg">
<path fill-rule="evenodd" clip-rule="evenodd" d="M12.963 17.7605C12.963 9.49456 19.7434 2.77441 28.1027 2.77441C36.4619 2.77441 43.2424 9.49456 43.2424 17.7605V22.8953L46.8261 22.8957V53.2262H9.17419V22.8957L12.963 22.8953V17.7605ZM28.1027 3.76841C20.2833 3.76841 13.957 10.0526 13.957 17.7605V23.8893L10.1682 23.8896V52.2322H45.8321V23.8896L42.2483 23.8893V17.7605C42.2483 10.0526 35.9221 3.76841 28.1027 3.76841ZM16.286 17.7605C16.286 11.3294 21.5824 6.13267 28.1023 6.13267C34.6223 6.13267 39.9187 11.3294 39.9187 17.7605L39.919 23.8896H16.286V17.7605ZM28.1023 7.12667C22.1156 7.12667 17.28 11.8941 17.28 17.7605V22.8956H38.925L38.9247 17.7605C38.9247 11.8941 34.0891 7.12667 28.1023 7.12667ZM23.9193 34.3999C23.9193 32.1845 25.7243 30.3191 28.0001 30.3191C30.2155 30.3191 32.081 32.1241 32.081 34.3999C32.081 35.6808 31.4944 36.8113 30.5973 37.5703L32.3483 46.0069H23.6015L25.3522 37.5187C24.4559 36.7544 23.9193 35.6247 23.9193 34.3999ZM28.0001 31.3131C26.2825 31.3131 24.9133 32.7243 24.9133 34.3999C24.9133 35.417 25.3991 36.3427 26.192 36.9153L26.4527 37.1036L24.8214 45.0129H31.1269L29.496 37.1551L29.7571 36.9665C30.5591 36.3873 31.087 35.4574 31.087 34.3999C31.087 32.6823 29.6758 31.3131 28.0001 31.3131Z" fill="#F3652B"/>
</svg>
