<svg width="56" height="56" viewBox="0 0 56 56" fill="none" xmlns="http://www.w3.org/2000/svg">
<path fill-rule="evenodd" clip-rule="evenodd" d="M7.86738 11.9821C8.41194 11.7563 9.00868 11.6319 9.63321 11.6319C10.2577 11.6319 10.8545 11.7563 11.399 11.9821L11.8581 12.1725L11.4774 13.0907L11.0183 12.9003C10.5923 12.7236 10.1248 12.6259 9.63321 12.6259C9.14162 12.6259 8.67412 12.7236 8.24813 12.9003L7.78904 13.0907L7.40828 12.1725L7.86738 11.9821ZM13.7054 14.0197L13.8957 14.4788C14.1216 15.0234 14.246 15.6201 14.246 16.2446C14.246 16.8692 14.1216 17.4659 13.8957 18.0105L13.7054 18.4696L12.7872 18.0888L12.9776 17.6297C13.1542 17.2037 13.252 16.7362 13.252 16.2446C13.252 15.753 13.1542 15.2855 12.9776 14.8595L12.7872 14.4005L13.7054 14.0197ZM6.47924 14.4005L6.28886 14.8595C6.11221 15.2855 6.01447 15.753 6.01447 16.2446C6.01447 16.7362 6.11221 17.2037 6.28886 17.6297L6.47924 18.0888L5.56106 18.4696L5.37068 18.0105C5.14486 17.4659 5.02047 16.8692 5.02047 16.2446C5.02047 15.6201 5.14486 15.0234 5.37068 14.4788L5.56106 14.0197L6.47924 14.4005ZM7.78904 19.3986L8.24813 19.589C8.67412 19.7656 9.14162 19.8634 9.63321 19.8634C10.1248 19.8634 10.5923 19.7656 11.0183 19.589L11.4774 19.3986L11.8581 20.3168L11.399 20.5072C10.8545 20.733 10.2577 20.8574 9.63321 20.8574C9.00868 20.8574 8.41194 20.733 7.86738 20.5072L7.40828 20.3168L7.78904 19.3986Z" fill="#F3652B"/>
<path fill-rule="evenodd" clip-rule="evenodd" d="M29.3472 10.3037L30.3455 14.4637L29.3789 14.6957L28.8962 12.684L28.3252 13.501L27.5105 12.9316L29.3472 10.3037ZM27.0563 15.3164L24.6486 18.7612L23.8339 18.1918L26.2416 14.7469L27.0563 15.3164ZM31.3626 18.7023L32.219 22.2714L31.2525 22.5034L30.396 18.9343L31.3626 18.7023ZM23.3797 20.5766L21.8911 22.7064L21.0764 22.1369L22.565 20.0072L23.3797 20.5766ZM14.3896 20.4409L16.4058 22.3719L15.7183 23.0898L14.6729 22.0886L13.5798 24.2594L12.692 23.8124L14.3896 20.4409ZM18.0317 23.9291L19.1521 25.0021L19.6455 24.3256L20.4486 24.9114L19.2853 26.5061L17.3441 24.6469L18.0317 23.9291ZM11.6832 28.0261L10.6507 30.0767H12.851V31.0707H9.03727L10.7954 27.579L11.6832 28.0261ZM16.8769 30.0767H20.3809V31.0707H16.8769V30.0767Z" fill="#F3652B"/>
<path fill-rule="evenodd" clip-rule="evenodd" d="M26.6301 26.9548C24.6315 26.9548 23.0113 28.575 23.0113 30.5736C23.0113 32.5721 24.6315 34.1923 26.6301 34.1923C28.6287 34.1923 30.2488 32.5721 30.2488 30.5736C30.2488 28.575 28.6287 26.9548 26.6301 26.9548ZM22.0173 30.5736C22.0173 28.026 24.0825 25.9608 26.6301 25.9608C29.1776 25.9608 31.2428 28.026 31.2428 30.5736C31.2428 33.1211 29.1776 35.1863 26.6301 35.1863C24.0825 35.1863 22.0173 33.1211 22.0173 30.5736Z" fill="#F3652B"/>
<path fill-rule="evenodd" clip-rule="evenodd" d="M46.3402 24.6348L51.4415 45.3996H26.0358L31.3882 34.7699L36.1408 39.3217L46.3402 24.6348ZM45.9003 27.0108L36.2936 40.8444L31.6714 36.4175L27.6492 44.4056H50.1737L45.9003 27.0108Z" fill="#F3652B"/>
<path fill-rule="evenodd" clip-rule="evenodd" d="M2.7511 8.33228H36.5474V21.8851H53.2494V47.6679H19.453V34.1151H2.7511V8.33228ZM19.453 33.1211V21.8851H35.5534V9.32628H3.7451V33.1211H19.453ZM20.447 22.8791V46.6739H52.2554V22.8791H20.447Z" fill="#F3652B"/>
</svg>
