<svg width="17" height="16" viewBox="0 0 17 16" fill="none" xmlns="http://www.w3.org/2000/svg">
<path d="M11.2015 7.53568C11.592 7.92621 11.592 8.55937 11.2015 8.9499L6.95888 13.1925C6.56836 13.5831 5.93519 13.5831 5.54467 13.1925C5.15415 12.802 5.15415 12.1689 5.54467 11.7783L9.0802 8.24279L5.54464 4.70723C5.15412 4.3167 5.15412 3.68354 5.54464 3.29302C5.93516 2.90249 6.56833 2.90249 6.95885 3.29302L11.2015 7.53568C11.2015 7.53567 11.2015 7.53569 11.2015 7.53568Z" fill="white"/>
<path d="M11.2015 7.53568C11.592 7.92621 11.592 8.55937 11.2015 8.9499L6.95888 13.1925C6.56835 13.5831 5.93519 13.5831 5.54466 13.1925C5.15414 12.802 5.15414 12.1689 5.54466 11.7783L9.0802 8.24279L5.54463 4.70723C5.15411 4.3167 5.15411 3.68354 5.54463 3.29302C5.93516 2.90249 6.56832 2.90249 6.95885 3.29302L11.2015 7.53568C11.2015 7.53567 11.2015 7.53569 11.2015 7.53568Z" fill="white"/>
</svg>
