<svg width="63" height="12" viewBox="0 0 63 12" fill="none" xmlns="http://www.w3.org/2000/svg">
<path d="M1.20641 7.57266C1.20641 7.9159 1.39295 8.08753 1.76604 8.08753L2.62788 8.02037L2.57192 8.65835C2.1839 8.76282 1.81454 8.81505 1.46384 8.81505C1.11313 8.81505 0.837047 8.72178 0.635578 8.53523C0.434109 8.34869 0.333374 8.09872 0.333374 7.78532C0.333374 7.47193 0.393069 7.07645 0.512458 6.59889L1.16164 3.83429H0.422916L0.613192 3.10676H1.34072L1.73246 1.45024H2.57192L2.16898 3.10676H3.73596L3.55688 3.83429H1.9899L1.34072 6.64366C1.25118 7.00183 1.20641 7.3115 1.20641 7.57266Z" fill="#F4F4F4"/>
<path d="M4.71375 7.06899C4.71375 7.38985 4.81075 7.63982 5.00476 7.8189C5.19877 7.99052 5.43755 8.07633 5.7211 8.07633C6.25089 8.07633 6.7956 8.01664 7.35523 7.89725L7.63505 7.83009L7.5679 8.49046C6.90379 8.70686 6.26581 8.81505 5.65394 8.81505C4.46751 8.81505 3.8743 8.24795 3.8743 7.11376C3.8743 6.07657 4.10934 5.1513 4.57944 4.33796C4.81822 3.93502 5.13534 3.61044 5.53082 3.3642C5.93376 3.11796 6.3852 2.99483 6.88514 2.99483C7.98949 2.99483 8.54166 3.45001 8.54166 4.36035C8.54166 5.02445 8.29169 5.49081 7.79175 5.75944C7.29181 6.0206 6.49713 6.15118 5.4077 6.15118H4.83687C4.75479 6.44219 4.71375 6.74813 4.71375 7.06899ZM5.5644 5.49081C6.3255 5.49081 6.87395 5.41246 7.20973 5.25577C7.54551 5.09161 7.7134 4.79686 7.7134 4.37154C7.7134 3.92383 7.42612 3.69998 6.85156 3.69998C5.93376 3.69998 5.2995 4.29692 4.9488 5.49081H5.5644Z" fill="#F4F4F4"/>
<path d="M12.2231 2.99483C12.5738 2.99483 12.973 3.04707 13.4207 3.15153L13.6222 3.2075L13.4095 3.85668C12.9245 3.76713 12.5216 3.72236 12.2007 3.72236C11.753 3.72236 11.3687 3.88652 11.0479 4.21484C10.4435 4.81925 10.1413 5.73332 10.1413 6.95706C10.1413 7.33015 10.2308 7.6137 10.4099 7.80771C10.589 7.99425 10.8837 8.08753 11.2941 8.08753C11.5851 8.08753 11.9284 8.04649 12.3238 7.96441L12.5477 7.91963L12.4917 8.58001C11.9769 8.7367 11.4583 8.81505 10.9359 8.81505C10.4211 8.81505 10.0144 8.66955 9.71594 8.37854C9.42493 8.08006 9.27942 7.65847 9.27942 7.11376C9.27942 5.51693 9.71221 4.34169 10.5778 3.58805C11.0329 3.19257 11.5814 2.99483 12.2231 2.99483Z" fill="#F4F4F4"/>
<path d="M17.4644 2.99483C17.8971 2.99483 18.2255 3.12169 18.4493 3.37539C18.6732 3.62909 18.7851 3.94995 18.7851 4.33796C18.7851 4.72598 18.7068 5.24084 18.5501 5.88256L17.9009 8.70313H17.0726L17.7218 5.91614C17.8561 5.30427 17.9233 4.85656 17.9233 4.57301C17.9233 4.01337 17.6733 3.73356 17.1734 3.73356C16.8077 3.73356 16.36 4.00591 15.8302 4.55062C15.7108 4.67748 15.6138 4.78567 15.5392 4.87521L15.4385 4.99833L14.5878 8.70313H13.7484L15.6064 0.666748H16.4458L15.6511 4.09172C15.7183 4.00964 15.8078 3.90891 15.9198 3.78952C16.0317 3.66267 16.2444 3.49851 16.5578 3.29704C16.8786 3.09557 17.1808 2.99483 17.4644 2.99483Z" fill="#F4F4F4"/>
<path d="M23.2625 2.99483C23.6952 2.99483 24.0236 3.12169 24.2474 3.37539C24.4713 3.62909 24.5832 3.95741 24.5832 4.36035C24.5832 4.76329 24.5086 5.26323 24.3593 5.86017L23.699 8.70313H22.8707L23.5199 5.91614C23.6617 5.34904 23.7326 4.90133 23.7326 4.57301C23.7326 4.01337 23.4788 3.73356 22.9714 3.73356C22.7476 3.73356 22.4902 3.83802 22.1991 4.04695C21.9156 4.25588 21.6843 4.46481 21.5052 4.67374L21.2478 4.98714L20.3859 8.70313H19.5577L20.8448 3.10676H21.6619L21.4604 4.08053C21.5276 3.99845 21.6134 3.89772 21.7179 3.77833C21.8298 3.65894 22.0424 3.49851 22.3558 3.29704C22.6767 3.09557 22.9789 2.99483 23.2625 2.99483Z" fill="#F4F4F4"/>
<path d="M28.4564 2.99483C29.7473 2.99483 30.3927 3.62909 30.3927 4.8976C30.3927 5.59155 30.2808 6.23326 30.057 6.82275C29.8406 7.41223 29.5123 7.89352 29.072 8.26661C28.6318 8.63224 28.1244 8.81505 27.5498 8.81505C26.2738 8.81505 25.6358 8.20318 25.6358 6.97945C25.6358 5.90494 25.9007 4.97222 26.4305 4.18126C26.9678 3.39031 27.6431 2.99483 28.4564 2.99483ZM27.5498 8.08753C28.1467 8.08753 28.628 7.77413 28.9937 7.14734C29.3667 6.51308 29.5533 5.75944 29.5533 4.88641C29.5533 4.52824 29.46 4.24469 29.2735 4.03576C29.0944 3.82683 28.822 3.72236 28.4564 3.72236C27.8744 3.72236 27.3968 4.05068 27.0237 4.70732C26.6581 5.3565 26.4753 6.11761 26.4753 6.99064C26.4753 7.7219 26.8335 8.08753 27.5498 8.08753Z" fill="#F4F4F4"/>
<path d="M31.1554 8.70313L33.0134 0.666748H33.8417L31.9949 8.70313H31.1554Z" fill="#F4F4F4"/>
<path d="M36.8396 2.99483C38.1305 2.99483 38.7759 3.62909 38.7759 4.8976C38.7759 5.59155 38.664 6.23326 38.4401 6.82275C38.2237 7.41223 37.8954 7.89352 37.4552 8.26661C37.0149 8.63224 36.5075 8.81505 35.933 8.81505C34.657 8.81505 34.019 8.20318 34.019 6.97945C34.019 5.90494 34.2839 4.97222 34.8137 4.18126C35.3509 3.39031 36.0262 2.99483 36.8396 2.99483ZM35.933 8.08753C36.5299 8.08753 37.0112 7.77413 37.3768 7.14734C37.7499 6.51308 37.9365 5.75944 37.9365 4.88641C37.9365 4.52824 37.8432 4.24469 37.6567 4.03576C37.4776 3.82683 37.2052 3.72236 36.8396 3.72236C36.2576 3.72236 35.78 4.05068 35.4069 4.70732C35.0413 5.3565 34.8585 6.11761 34.8585 6.99064C34.8585 7.7219 35.2166 8.08753 35.933 8.08753Z" fill="#F4F4F4"/>
<path d="M40.9601 11.3334C40.3407 11.3334 39.852 11.2028 39.4938 10.9417C39.1357 10.688 38.9566 10.3298 38.9566 9.86717C38.9566 9.23291 39.4491 8.66209 40.434 8.15468C40.3146 8.03529 40.2549 7.88979 40.2549 7.71817C40.2549 7.53908 40.3072 7.36 40.4116 7.18091C40.5161 7.00183 40.6206 6.86006 40.725 6.75559L40.8705 6.5877C40.3557 6.34892 40.0982 5.91987 40.0982 5.30054C40.0982 4.68121 40.3034 4.14396 40.7138 3.68878C41.1242 3.22615 41.6689 2.99483 42.348 2.99483C42.6912 2.99483 43.0009 3.03961 43.277 3.12915L43.4225 3.17392L45.079 3.10676L44.9111 3.8231H43.915C44.0418 4.03203 44.1052 4.28946 44.1052 4.5954C44.1052 5.15503 43.8926 5.66244 43.4672 6.11761C43.0494 6.57278 42.4748 6.80036 41.7436 6.80036L41.3742 6.76678C41.1429 7.06526 41.0272 7.29284 41.0272 7.44954C41.0272 7.60624 41.0981 7.71443 41.2399 7.77413C41.3817 7.82636 41.7025 7.88606 42.2025 7.95321C42.7024 8.01291 43.0867 8.14349 43.3553 8.34496C43.6239 8.53897 43.7583 8.8449 43.7583 9.26276C43.7583 9.83732 43.5008 10.3261 42.986 10.729C42.4786 11.1319 41.8033 11.3334 40.9601 11.3334ZM40.8705 8.44569C40.5721 8.59493 40.3109 8.78147 40.087 9.00533C39.8632 9.22918 39.7513 9.46796 39.7513 9.72166C39.7513 9.97537 39.8557 10.188 40.0647 10.3596C40.2736 10.5313 40.6131 10.6171 41.0832 10.6171C41.5608 10.6171 41.9898 10.5014 42.3704 10.2701C42.7509 10.0388 42.9412 9.72539 42.9412 9.32992C42.9412 9.10606 42.8591 8.94563 42.6949 8.84863C42.5383 8.75163 42.2435 8.67701 41.8107 8.62478C41.3779 8.57254 41.0645 8.51285 40.8705 8.44569ZM41.8219 6.10641C42.292 6.10641 42.6576 5.94971 42.9188 5.63632C43.18 5.31546 43.3105 4.99087 43.3105 4.66255C43.3105 4.33423 43.2322 4.09172 43.0755 3.93502C42.9188 3.77833 42.6427 3.69998 42.2472 3.69998C41.8592 3.69998 41.5346 3.86041 41.2735 4.18126C41.0198 4.49466 40.8929 4.8379 40.8929 5.211C40.8929 5.80794 41.2026 6.10641 41.8219 6.10641Z" fill="#F4F4F4"/>
<path d="M44.9533 8.70313L46.2405 3.10676H47.08L45.7816 8.70313H44.9533ZM46.4979 1.94272L46.7442 0.935374H47.5836L47.3486 1.94272H46.4979Z" fill="#F4F4F4"/>
<path d="M48.6028 7.06899C48.6028 7.38985 48.6998 7.63982 48.8938 7.8189C49.0878 7.99052 49.3266 8.07633 49.6101 8.07633C50.1399 8.07633 50.6846 8.01664 51.2443 7.89725L51.5241 7.83009L51.4569 8.49046C50.7928 8.70686 50.1548 8.81505 49.543 8.81505C48.3565 8.81505 47.7633 8.24795 47.7633 7.11376C47.7633 6.07657 47.9984 5.1513 48.4685 4.33796C48.7072 3.93502 49.0244 3.61044 49.4198 3.3642C49.8228 3.11796 50.2742 2.99483 50.7742 2.99483C51.8785 2.99483 52.4307 3.45001 52.4307 4.36035C52.4307 5.02445 52.1807 5.49081 51.6808 5.75944C51.1808 6.0206 50.3862 6.15118 49.2967 6.15118H48.7259C48.6438 6.44219 48.6028 6.74813 48.6028 7.06899ZM49.4534 5.49081C50.2145 5.49081 50.763 5.41246 51.0988 5.25577C51.4345 5.09161 51.6024 4.79686 51.6024 4.37154C51.6024 3.92383 51.3152 3.69998 50.7406 3.69998C49.8228 3.69998 49.1885 4.29692 48.8378 5.49081H49.4534Z" fill="#F4F4F4"/>
<path d="M57.3993 3.87906C56.6904 3.7746 56.1196 3.72236 55.6868 3.72236C55.2615 3.72236 54.9332 3.83056 54.7019 4.04695C54.4705 4.25588 54.3549 4.50958 54.3549 4.80806C54.3549 4.98714 54.422 5.12145 54.5564 5.211C54.6907 5.30054 55.0003 5.40873 55.4854 5.53558C55.9778 5.66243 56.3397 5.80794 56.571 5.9721C56.8024 6.1288 56.918 6.39742 56.918 6.77798C56.918 7.43462 56.6904 7.93829 56.2353 8.28899C55.7801 8.6397 55.1943 8.81505 54.478 8.81505C54.0004 8.81505 53.4968 8.7479 52.967 8.61358L52.7096 8.55762L52.8663 7.90844C53.5527 8.02783 54.1198 8.08753 54.5675 8.08753C55.0227 8.08753 55.3846 7.99052 55.6532 7.79651C55.9219 7.60251 56.0562 7.31896 56.0562 6.94587C56.0562 6.73694 55.9853 6.59143 55.8435 6.50935C55.7017 6.41981 55.3921 6.31908 54.9145 6.20715C54.4444 6.08776 54.0937 5.94598 53.8624 5.78182C53.6311 5.61766 53.5154 5.36023 53.5154 5.00953C53.5154 4.41258 53.7244 3.92756 54.1422 3.55447C54.5601 3.18138 55.0861 2.99483 55.7204 2.99483C56.28 2.99483 56.8098 3.05453 57.3098 3.17392L57.5672 3.22988L57.3993 3.87906Z" fill="#F4F4F4"/>
<path d="M61.002 4.79761C60.5193 4.79761 60.1191 4.66307 59.8015 4.39398C59.4839 4.1249 59.3251 3.7945 59.3251 3.40279C59.3251 3.00767 59.4839 2.67727 59.8015 2.41159C60.1191 2.1425 60.5193 2.00796 61.002 2.00796C61.4848 2.00796 61.8829 2.1425 62.1962 2.41159C62.5139 2.68068 62.6727 3.01278 62.6727 3.4079C62.6727 3.79961 62.516 4.13 62.2026 4.39909C61.8892 4.66477 61.489 4.79761 61.002 4.79761ZM60.9957 2.22766C60.6019 2.22766 60.2715 2.34177 60.0048 2.56998C59.738 2.79819 59.6046 3.0758 59.6046 3.40279C59.6046 3.72637 59.738 4.00227 60.0048 4.23049C60.2715 4.4587 60.6019 4.57281 60.9957 4.57281C61.3938 4.57281 61.7262 4.4604 61.993 4.2356C62.2598 4.00738 62.3932 3.72978 62.3932 3.40279C62.3932 3.0758 62.2598 2.79819 61.993 2.56998C61.7262 2.34177 61.3938 2.22766 60.9957 2.22766ZM60.6654 3.6327V4.17939H60.3033V2.63129H61.002C61.2392 2.63129 61.4171 2.66876 61.5356 2.74369C61.6584 2.81863 61.7198 2.93274 61.7198 3.08601C61.7198 3.23588 61.6965 3.34829 61.65 3.42322C61.6034 3.49475 61.5208 3.55096 61.4022 3.59183L61.7516 4.17939H61.3578L61.0465 3.6327H60.6654ZM60.6654 2.87142V3.39257H61.0402C61.2561 3.39257 61.3641 3.30571 61.3641 3.132C61.3641 2.95828 61.2328 2.87142 60.9703 2.87142H60.6654Z" fill="#F4F4F4"/>
</svg>
