<svg width="110" height="22" viewBox="0 0 110 22" fill="none" xmlns="http://www.w3.org/2000/svg">
<path fill-rule="evenodd" clip-rule="evenodd" d="M62.7524 0L58.6666 21.3333H79.914L83.9999 0H62.7524ZM66.0715 4.03067H79.1317L76.5897 17.3026H63.5296L66.0715 4.03067Z" fill="#F3652B"/>
<path fill-rule="evenodd" clip-rule="evenodd" d="M54.6672 0L50.6668 21.3333H54.6663L58.6667 0H54.6672Z" fill="#F3652B"/>
<path fill-rule="evenodd" clip-rule="evenodd" d="M22.215 2.54313e-06L0.596342 18.2005L0 21.3333H3.11466L19.861 7.24201L17.1618 21.3333H21.2468L25.3333 2.54313e-06H22.215Z" fill="#F3652B"/>
<path fill-rule="evenodd" clip-rule="evenodd" d="M105.248 0L103.435 9.46381L106.735 13.566L109.333 0H105.248ZM88.0858 0L83.9999 21.3333H88.0874L90.8877 6.70849L102.692 21.3333H105.247L105.752 18.7217L90.6408 0H88.0858Z" fill="#F3652B"/>
<path fill-rule="evenodd" clip-rule="evenodd" d="M29.4193 0L28.6473 4.03077H42.7571L25.9379 18.1925L25.3334 21.3333H46.5808L47.3528 17.3026H33.2431L50.066 3.13773L50.6667 0H29.4193Z" fill="#F3652B"/>
</svg>
